<svg width="64" height="64" viewBox="0 0 64 64" fill="none" xmlns="http://www.w3.org/2000/svg">
<path d="M18 28C21.866 28 25 24.866 25 21C25 17.134 21.866 14 18 14C14.134 14 11 17.134 11 21C11 24.866 14.134 28 18 28Z" fill="#553A31"/>
<path d="M61.9898 29.4301C61.6098 27.2101 60.7298 25.0601 59.4198 23.2201C59.2598 23.0001 59.0298 22.8501 58.7598 22.8101C58.0898 22.7101 57.4998 22.4101 57.0498 21.9501C56.5998 21.5001 56.2998 20.9101 56.1998 20.2501C56.1598 19.9801 56.0098 19.7501 55.7898 19.5901C53.9498 18.2801 51.7998 17.4001 49.5798 17.0201C49.3098 16.9801 49.0398 17.0401 48.8198 17.2001C47.7398 17.9901 46.2798 17.9901 45.2098 17.2001C44.9898 17.0401 44.7198 16.9801 44.4498 17.0201C42.2198 17.4001 40.0798 18.2901 38.2398 19.5901C38.0198 19.7501 37.8698 19.9801 37.8298 20.2501C37.7298 20.9201 37.4298 21.5001 36.9698 21.9601C36.5198 22.4101 35.9298 22.7101 35.2698 22.8101C34.9998 22.8501 34.7698 23.0001 34.6098 23.2201C33.5898 24.6501 32.8398 26.3001 32.3798 28.0001H13.9698C11.1798 28.0001 8.49978 29.3201 6.81978 31.5301C4.83978 34.1301 2.40978 38.9001 2.03978 46.9001C1.99978 47.7201 2.28978 48.4901 2.85978 49.0901C3.41978 49.6801 4.19978 50.0101 5.05978 50.0101C6.61978 50.0101 7.91978 48.8301 8.07978 47.2601C8.34978 44.6401 9.17978 41.9401 9.97978 39.7901V49.0101C9.97978 49.5601 10.4298 50.0101 10.9798 50.0101H24.9798C25.5298 50.0101 25.9798 49.5601 25.9798 49.0101V36.7401C25.9798 36.2501 26.3498 35.8201 26.8398 35.7501L32.0898 35.0001C32.4998 37.0701 33.3398 39.0601 34.5598 40.7801C34.7198 41.0001 34.9498 41.1501 35.2198 41.1901C35.8898 41.2901 36.4798 41.5901 36.9298 42.0501C37.3798 42.5001 37.6798 43.0901 37.7798 43.7501C37.8198 44.0201 37.9698 44.2501 38.1898 44.4101C40.0298 45.7201 42.1798 46.6001 44.3998 46.9801C44.6698 47.0201 44.9398 46.9601 45.1598 46.8001C46.2398 46.0101 47.6998 46.0101 48.7698 46.8001C48.9398 46.9301 49.1498 46.9901 49.3598 46.9901C49.4198 46.9901 49.4698 46.9901 49.5298 46.9801C51.7598 46.6001 53.8998 45.7101 55.7398 44.4101C55.9598 44.2501 56.1098 44.0201 56.1498 43.7501C56.2498 43.0801 56.5498 42.5001 57.0098 42.0401C57.4598 41.5901 58.0498 41.2901 58.7098 41.1901C58.9798 41.1501 59.2098 41.0001 59.3698 40.7801C60.6798 38.9401 61.5598 36.7901 61.9398 34.5701C61.9898 34.3001 61.9198 34.0301 61.7598 33.8101C61.3598 33.2701 61.1498 32.6401 61.1498 32.0001C61.1498 31.3601 61.3598 30.7301 61.7598 30.1901C61.9198 29.9701 61.9898 29.7001 61.9398 29.4301H61.9898ZM37.0198 32.2701L26.5798 33.7601C25.1098 33.9701 23.9998 35.2501 23.9998 36.7301V48.0001H11.9998V35.0001C11.9998 34.5401 11.6898 34.1401 11.2398 34.0301C10.7898 33.9201 10.3298 34.1301 10.1198 34.5301C9.97978 34.7901 6.74978 40.9701 6.10978 47.0301C6.04978 47.5901 5.61978 47.9901 5.01978 47.9901C4.74978 47.9901 4.49978 47.8801 4.30978 47.6901C4.11978 47.5001 4.02978 47.2401 4.03978 46.9801C4.37978 39.5001 6.59978 35.1001 8.40978 32.7401C9.71978 31.0301 11.7898 30.0001 13.9698 30.0001H36.8598C37.4898 30.0001 37.9998 30.5101 37.9998 31.1401C37.9998 31.7001 37.5798 32.1901 37.0198 32.2701ZM46.9998 40.0001C43.0498 40.0001 39.7398 37.1501 39.1198 33.3101C39.6598 32.7401 39.9998 31.9801 39.9998 31.1501C39.9998 30.5001 39.7998 29.9001 39.4698 29.4001C40.5698 26.2101 43.5898 24.0101 46.9998 24.0101C51.4098 24.0101 54.9998 27.6001 54.9998 32.0101C54.9998 36.4201 51.4098 40.0101 46.9998 40.0101V40.0001Z" fill="#553A31"/>
<path d="M47 15C50.866 15 54 11.866 54 8C54 4.13401 50.866 1 47 1C43.134 1 40 4.13401 40 8C40 11.866 43.134 15 47 15Z" fill="#553A31"/>
<path d="M47 63C50.866 63 54 59.866 54 56C54 52.134 50.866 49 47 49C43.134 49 40 52.134 40 56C40 59.866 43.134 63 47 63Z" fill="#553A31"/>
</svg>
