<svg width="64" height="54" viewBox="0 0 64 54" fill="none" xmlns="http://www.w3.org/2000/svg">
<path d="M61.6581 48H39.9346V53.3333H48.65H56.0647H61.7882C62.3086 53.3333 62.7638 53.2033 63.1541 52.9431C63.5443 52.6829 63.7828 52.4228 63.8695 52.1626L63.9996 51.7724V50.4715C63.9996 50.2981 63.9779 50.0596 63.9346 49.7561C63.8913 49.4526 63.6744 49.084 63.2842 48.6504C62.8939 48.2168 62.3519 48 61.6581 48Z" fill="#553A31"/>
<path d="M58.6663 46.9593C60.1406 46.9593 61.398 46.439 62.4387 45.3984C63.4794 44.3577 63.9997 43.0786 63.9997 41.561C63.9997 40.0433 63.4794 38.7642 62.4387 37.7236C61.398 36.6829 60.1406 36.1626 58.6663 36.1626C57.1921 36.1626 55.9346 36.6829 54.894 37.7236C53.8533 38.7642 53.333 40.0433 53.333 41.561C53.333 43.0786 53.8533 44.3577 54.894 45.3984C55.9346 46.439 57.1921 46.9593 58.6663 46.9593Z" fill="#553A31"/>
<path d="M47.3492 46.6992C48.7368 46.6992 49.9291 46.2439 50.9264 45.3333C51.9238 44.4228 52.4224 43.2738 52.4224 41.8862C52.4224 40.4986 51.9454 39.4364 50.9915 38.6992C50.0376 37.962 48.8234 37.5935 47.3492 37.5935L39.9346 38.5041V46.6992H47.3492Z" fill="#553A31"/>
<path d="M23.4144 11.9675C25.0621 11.9675 26.4496 11.3821 27.577 10.2114C28.7044 9.04065 29.2681 7.63148 29.2681 5.98374C29.2681 4.336 28.7044 2.92683 27.577 1.7561C26.4496 0.585366 25.0621 0 23.4144 0C21.7667 0 20.3575 0.585366 19.1868 1.7561C18.016 2.92683 17.4307 4.336 17.4307 5.98374C17.4307 7.63148 18.016 9.04065 19.1868 10.2114C20.3575 11.3821 21.7667 11.9675 23.4144 11.9675Z" fill="#553A31"/>
<path d="M17.301 31.2194V31.0894L14.5693 24.8455V37.3333H22.6344L24.3254 35.5121L19.6425 33.691C18.5151 33.2574 17.7346 32.4335 17.301 31.2194Z" fill="#553A31"/>
<path d="M18.9914 30.5692C19.2516 31.2632 19.7286 31.6967 20.4223 31.87L29.528 35.2521C30.1351 35.5123 30.7422 35.534 31.3492 35.3171C31.9562 35.1002 32.3681 34.6882 32.5849 34.0814C32.8018 33.4743 32.8018 32.8672 32.5849 32.2602C32.3681 31.6531 31.9562 31.2196 31.3492 30.9594L22.8939 27.8375L20.2922 21.5936L21.9833 20.9432L24.1947 26.2765L30.6988 28.618V22.1139L34.0809 24.1952L35.7719 32.6505C35.9453 33.2576 36.3356 33.7128 36.9427 34.0163C37.5497 34.3201 38.1567 34.3634 38.7638 34.1464C39.3709 33.9296 39.8044 33.5393 40.0646 32.9757C40.3248 32.412 40.3681 31.8267 40.1947 31.2196L38.2435 22.8944C38.1567 22.4608 37.8965 22.0706 37.463 21.7236C37.2896 21.4635 36.6825 20.7698 35.6418 19.6423C34.6012 18.5149 33.6256 17.4527 32.715 16.4553C31.8044 15.458 31.3058 14.9161 31.2191 14.8293C30.2652 13.8754 28.9644 13.3984 27.3166 13.3984H19.3817C17.3004 13.3984 15.8912 14.2006 15.154 15.8049C14.4169 17.4092 14.3085 18.9052 14.8288 20.2927L18.9914 30.5692Z" fill="#553A31"/>
<path d="M38.6341 38.634H2.60163C1.9079 38.634 1.30081 38.8509 0.780488 39.2844C0.260163 39.718 0 40.2818 0 40.9755V42.1462V53.3332H3.12195H38.6341V38.634Z" fill="#553A31"/>
</svg>
