<svg width="47" height="61" viewBox="0 0 47 61" fill="none" xmlns="http://www.w3.org/2000/svg">
<path d="M43.124 17.7617C45.5844 13.6134 42.4777 8.42016 37.7715 8.48633C37.833 3.74825 32.627 0.65236 28.4863 3.1333C27.4024 1.2207 25.3692 0 23.1192 0C20.877 0 18.8477 1.21826 17.7627 3.12646C13.6129 0.65438 8.41617 3.75481 8.47754 8.48632C3.75737 8.42774 0.672781 13.5975 3.13281 17.7593C1.2207 18.8359 0 20.8657 0 23.1196C0 25.3755 1.2168 27.4072 3.125 28.4868C0.72304 32.5227 3.57646 37.7612 8.47949 37.7612C8.46679 39.1341 8.93945 40.4862 9.79724 41.5919C9.79193 41.5907 9.78631 41.5898 9.781 41.5886C6.47094 46.4986 2.89099 51.2986 0.901 56.6786C0.86096 56.7586 0.94098 56.8286 1.01099 56.7786C3.28101 55.4686 5.75098 54.2286 8.331 53.0286C8.38099 53.0086 8.44099 53.0286 8.44099 53.0886C8.891 55.3886 9.43098 57.7286 10.181 60.1486C10.201 60.2186 10.311 60.2186 10.341 60.1586C12.3599 54.7194 15.9908 49.8655 19.3261 44.9203C20.9116 46.159 23.0068 46.6557 25.1477 45.9028C28.2974 50.51 31.5822 55.077 33.471 60.1586C33.491 60.2186 33.601 60.2186 33.621 60.1486C34.371 57.7286 34.921 55.3886 35.361 53.0886C35.361 53.0286 35.431 53.0086 35.471 53.0286C38.061 54.2286 40.531 55.4686 42.801 56.7786C42.861 56.8286 42.941 56.7586 42.911 56.6786C41.0872 51.8183 37.9932 47.4189 34.9613 42.988C36.7487 41.822 37.7957 39.8501 37.7705 37.7608C42.4917 37.8552 45.5894 32.5996 43.1289 28.4844C47.2856 26.1291 47.2879 20.1114 43.124 17.7617ZM41.417 27.0693L40.9072 27.1821C40.8484 27.4755 40.3226 28.136 40.9238 28.855C43.5806 31.7975 40.9073 36.5 36.9912 35.6729C36.0396 35.4367 35.6607 36.4142 35.4629 36.5913L35.7012 37.0713C36.4266 41.0058 31.7578 43.5506 28.8272 40.8994C28.137 40.3217 27.3983 40.8893 27.166 40.9395L27.0625 41.4341C25.7408 45.2234 20.4379 45.1251 19.1777 41.4307L19.0615 40.9209L18.5166 40.7178C18.1436 40.5791 17.7285 40.6548 17.3975 40.9326C15.7833 42.3812 13.1204 42.4212 11.4971 40.5449C10.6533 39.5684 10.3057 38.25 10.5606 37.0088C10.6602 36.6631 10.582 36.2881 10.3408 36.0112L9.80958 35.4858L9.23243 35.6782C5.32646 36.467 2.66273 31.8062 5.35255 28.8247C5.61036 28.5151 5.68458 28.0942 5.54689 27.7261L5.28419 27.1348L4.79298 27.0557C3.11915 26.4702 2.00001 24.8984 2.00001 23.1196C2.00001 21.3227 3.1504 19.7358 4.8711 19.1689C5.72364 18.8805 5.60702 17.984 5.67676 17.7856L5.32813 17.3979C2.64242 14.402 5.41367 9.74682 9.25684 10.5771C10.2088 10.8122 10.5938 9.82095 10.7861 9.64647L10.5479 9.16698C9.83746 5.33062 14.4322 2.66707 17.3975 5.32909L17.5098 5.41552C17.8291 5.62988 18.2256 5.66845 18.5742 5.51659L19.1211 5.23827L19.1944 4.78516C19.791 3.11573 21.3584 2 23.1192 2C24.9063 2 26.4912 3.14258 27.0723 4.8457L27.1846 5.31836C27.446 5.38609 28.0576 5.88748 28.7402 5.42676L28.8545 5.33789C30.1953 4.12646 32.1387 3.92041 33.6934 4.82519C35.2197 5.71386 36.0352 7.52001 35.6895 9.23242C35.4451 10.0783 36.2537 10.5043 36.4424 10.7666L37.0215 10.5708C40.8991 9.76551 43.5558 14.4575 40.959 17.3584C40.3226 17.9948 40.8248 18.7597 40.8535 18.9956L41.3867 19.1714C45.1831 20.4224 45.1984 25.7904 41.417 27.0693Z" fill="#553A31"/>
<path d="M23.1208 9.05859C15.3508 9.05859 9.05078 15.3586 9.05078 23.1286C9.05078 30.8986 15.3508 37.1986 23.1208 37.1986C30.8908 37.1986 37.2008 30.8986 37.2008 23.1286C37.2008 15.3586 30.8908 9.05859 23.1208 9.05859ZM32.1808 21.0786L27.7508 25.4486C27.7308 25.4686 27.7308 25.4886 27.7308 25.5086L28.8208 31.6386C28.8308 31.6986 28.7808 31.7286 28.7308 31.7086L23.2008 28.8386C23.1808 28.8286 23.1608 28.8286 23.1408 28.8386L17.6408 31.7786C17.6008 31.7986 17.5408 31.7586 17.5508 31.7086L18.5708 25.5586C18.5708 25.5386 18.5608 25.5186 18.5508 25.5086L14.0608 21.1886C14.0308 21.1486 14.0408 21.0886 14.1008 21.0785L20.2608 20.1486C20.2808 20.1385 20.2908 20.1286 20.3008 20.1086L23.0308 14.5086C23.0508 14.4585 23.1208 14.4585 23.1408 14.5086L25.9308 20.0785C25.9408 20.0986 25.9608 20.1086 25.9808 20.1086L32.1508 20.9686C32.2008 20.9786 32.2208 21.0386 32.1808 21.0786Z" fill="#553A31"/>
</svg>
