<svg width="308" height="334" viewBox="0 0 308 334" fill="none" xmlns="http://www.w3.org/2000/svg">
<path d="M65.2819 104.576C72.0647 112.545 72.5321 123.338 72.5321 123.338C72.8598 127.64 73.9263 177.232 110.579 205.947C130.461 220.487 149.081 221.981 154.616 222.633C162.173 223.129 165.072 218.061 165.072 218.061C165.072 218.061 186.569 186.367 166.613 148.23C144.866 106.686 99.3724 83.6732 47.9396 97.3092C47.9396 97.3092 59.7085 98.0193 65.2819 104.576Z" fill="#553A31" fill-opacity="0.15"/>
<path d="M180.576 210.68C160.268 243.687 176.488 272.101 176.488 272.101C176.488 272.101 178.616 276.643 185.206 276.401C190.058 275.946 206.355 275.114 224.739 262.814C258.802 238.501 263.593 194.931 264.213 191.166C264.213 191.166 265.466 181.701 271.969 174.862C277.314 169.249 287.584 168.93 287.584 168.93C256.965 159.604 227.491 166.229 204.978 183.479C195.459 190.758 187.163 199.982 180.576 210.68Z" fill="#553A31" fill-opacity="0.15"/>
<path d="M76.5736 230.944C82.3043 234.558 84.5529 241.277 84.5529 241.277C85.5247 243.915 95.2064 274.955 123.544 285.446C138.741 290.502 150.756 287.582 154.371 286.828C159.236 285.595 160.131 281.781 160.131 281.781C160.131 281.781 167.952 257.329 148.448 237.463C127.176 215.781 94.2952 210.716 64.314 229.965C64.314 229.965 71.8652 227.97 76.5736 230.944Z" fill="#553A31" fill-opacity="0.15"/>
</svg>
