<svg width="67" height="99" viewBox="0 0 67 99" fill="none" xmlns="http://www.w3.org/2000/svg">
<g clip-path="url(#clip0_737_422)">
<path d="M17.0888 31.4638C18.5622 33.7653 18.6397 36.8821 18.6397 36.8821C18.7017 38.1246 18.8198 52.4473 26.8156 60.7387C31.1553 64.9371 35.2481 65.3678 36.4641 65.5557C38.1256 65.6988 38.7751 64.235 38.7751 64.235C38.7751 64.235 43.5788 55.0806 39.2781 44.0672C34.5917 32.0698 24.6375 25.4256 13.2907 29.366C13.2907 29.366 15.8781 29.5706 17.0888 31.4638Z" fill="#553A31"/>
<path d="M42.2949 62.1281C37.7783 71.5857 41.2451 79.7123 41.2451 79.7123C41.2451 79.7123 41.6977 81.0115 43.1366 80.9395C44.1965 80.807 47.7551 80.5618 51.7988 77.0324C59.2946 70.0577 60.4519 57.5832 60.597 56.5051C60.597 56.5051 60.8946 53.795 62.3314 51.8345C63.5122 50.2252 65.7543 50.1293 65.7543 50.1293C59.0961 47.4733 52.6472 49.3828 47.6899 54.3305C45.5939 56.4184 43.7596 59.0628 42.2949 62.1281Z" fill="#553A31"/>
<path d="M19.5301 67.9522C20.7803 68.9952 21.259 70.9329 21.259 70.9329C21.4665 71.6937 23.523 80.6461 29.7217 83.6754C33.0473 85.1357 35.6921 84.2954 36.4875 84.0785C37.5585 83.7236 37.7636 82.6238 37.7636 82.6238C37.7636 82.6238 39.5354 75.5736 35.2973 69.8422C30.675 63.5869 23.4665 62.1215 16.8403 67.668C16.8403 67.668 18.5029 67.0939 19.5301 67.9522Z" fill="#553A31"/>
</g>
<defs>
<clipPath id="clip0_737_422">
<rect width="56.5052" height="63.8214" fill="white" transform="matrix(0.682787 -0.730618 0.434061 0.900883 0.716797 41.2842)"/>
</clipPath>
</defs>
</svg>
