<svg width="64" height="64" viewBox="0 0 64 64" fill="none" xmlns="http://www.w3.org/2000/svg">
<path d="M39.4222 5.67456C37.4576 5.67456 35.886 7.24612 35.886 9.21072V20.9982C35.886 22.4716 37.0647 23.6504 38.6364 23.6504H49.7362C51.3079 23.6504 52.4866 22.4716 52.4866 20.9982V9.21072C52.4866 7.24612 50.915 5.67456 48.9504 5.67456H39.4222ZM46.4947 10.3895C47.1823 10.3895 47.7716 10.9788 47.7716 11.6665V16.5778C47.7716 18.2477 45.2177 18.2477 45.3159 16.5778V11.6665C45.3159 10.9788 45.8071 10.4878 46.4947 10.3895ZM14.7668 16.5778C12.5076 16.5778 10.9359 17.069 9.8554 17.6584V31.3122C9.8554 32.3927 10.2483 33.4732 10.8377 34.2591C11.2306 32.5892 11.9182 31.5086 12.5076 30.7228C12.8023 30.428 12.9005 30.2317 13.0969 29.937C12.9987 29.8387 12.9005 29.8387 12.8023 29.7408C12.2129 29.446 11.5253 28.9551 11.2306 28.071C10.9359 27.2851 11.5253 26.4011 12.3111 26.4011C12.9005 26.4011 13.3916 26.6958 13.4899 27.285C13.5881 27.4812 13.7845 27.5799 13.981 27.6781C13.981 27.3833 14.0792 26.9906 14.0792 26.4994C13.981 25.8118 14.4721 25.3207 15.1597 25.2225C15.8473 25.1242 16.5349 25.7136 16.5349 26.4994C16.5349 28.5623 15.9456 29.9375 15.258 31.018C15.3562 31.018 15.4544 30.9197 15.4544 30.9197C15.7491 30.8214 15.9456 30.6249 16.2402 30.6249C17.419 30.5266 18.0084 32.0001 17.1243 32.7859C16.5349 33.2771 15.9456 33.4735 15.1597 33.67C14.6686 33.7683 14.0792 33.8662 13.4898 33.7683C13.2934 34.2594 13.0969 34.947 13.0969 35.9292C13.5881 36.1254 14.1774 36.224 14.7668 36.224C17.5172 36.224 19.6783 34.0631 19.6783 31.3127V17.6588C18.4995 17.0692 16.9279 16.5778 14.7668 16.5778ZM22.134 25.5167V31.3122C22.134 35.3396 18.7942 38.6793 14.7668 38.6793C10.6412 38.6793 7.39968 35.3396 7.39968 31.3122V25.5167C5.14042 27.0884 3.66699 29.6423 3.66699 32.4909V56.9499C3.66699 57.146 3.66699 57.3429 3.76522 57.5393C3.76522 57.6375 3.76522 57.6375 3.86345 57.6375C3.86345 57.6375 3.86345 57.6375 3.86345 57.7358C3.86345 57.7358 3.86345 57.8341 3.96168 57.8341C3.96168 57.9323 3.96168 57.9323 3.96168 57.9323H4.05991C4.05991 58.0306 4.05991 58.0306 4.15813 58.0306C4.15813 58.1289 4.15813 58.1289 4.25636 58.1289L4.35459 58.2272C4.55104 58.3254 4.84573 58.3254 5.14042 58.3254H24.5897C25.2773 58.3254 25.7684 57.736 25.7684 57.0485V32.4913C25.7684 29.6427 24.295 27.0884 22.134 25.5167ZM38.1452 26.106C37.5559 26.106 37.163 26.5972 37.163 27.0884V28.8565H35.7878C33.725 28.8565 31.6622 29.6423 30.1887 31.1158C28.7153 32.491 27.733 34.5538 28.1259 36.7148L30.7781 50.8597C31.0728 52.8242 31.8586 54.5923 33.1356 56.0658C34.5108 57.4409 36.2789 58.3251 38.4399 58.3251H50.0309C52.0937 58.3251 53.96 57.4409 55.237 56.0658C56.514 54.5923 57.2998 52.8242 57.6927 50.8597L60.2467 36.7148C60.6396 34.5538 59.6573 32.491 58.1839 31.1158C56.7104 29.6423 54.6477 28.8565 52.5848 28.8565H51.2097V27.0884C51.2097 26.5972 50.8167 26.106 50.3256 26.106H38.1452ZM38.8328 33.7678H49.5398C51.0132 33.7678 52.3884 34.3573 53.4689 35.2413C54.4512 36.2236 55.1388 37.6971 54.8441 39.2687L53.1742 48.3058C52.9778 49.5827 52.3884 50.8596 51.5043 51.8419C50.6203 52.726 49.3433 53.4136 47.8699 53.4136H40.5027C39.0293 53.4136 37.7523 52.726 36.8683 51.8419C35.9842 50.8596 35.3948 49.5827 35.1984 48.3058L33.5285 39.2687C33.2338 37.6971 33.9214 36.2236 35.0019 35.2413C35.9842 34.3573 37.3594 33.7678 38.8328 33.7678ZM38.8328 36.2236C38.047 36.2236 37.163 36.5184 36.6718 37.1077C36.0824 37.5989 35.886 38.1881 35.9842 38.8758L37.6541 47.8145C37.7523 48.7969 38.1452 49.5827 38.6364 50.1721C39.1275 50.6633 39.7169 50.9578 40.5027 50.9578H47.8699C48.6557 50.9578 49.2451 50.6631 49.7362 50.1721C50.2274 49.5827 50.6203 48.7969 50.8167 47.8145L52.3884 38.8758C52.4866 38.1881 52.2902 37.5989 51.7008 37.1077C51.2097 36.5183 50.3256 36.2236 49.5398 36.2236H38.8328ZM10.3465 40.0546C10.543 40.0546 10.8377 40.0546 11.0341 40.2508C11.9182 40.7419 13.1952 41.1347 14.7668 41.1347C16.2403 41.1347 17.6155 40.7418 18.4013 40.2508C19.8747 39.3667 21.1517 41.5277 19.6783 42.3135C18.4013 43.0994 16.6332 43.5905 14.7668 43.5905C12.8023 43.5905 11.1324 43.0994 9.75717 42.3135C8.67665 41.7241 9.06957 40.0546 10.3465 40.0546Z" fill="#553A31"/>
</svg>
